<svg id="Group_16" data-name="Group 16" xmlns="http://www.w3.org/2000/svg" xmlns:xlink="http://www.w3.org/1999/xlink" width="46.368" height="32.444" viewBox="0 0 46.368 32.444">
  <defs>
    <clipPath id="clip-path">
      <rect id="Rectangle_13" data-name="Rectangle 13" width="46.368" height="32.444" fill="#1e6091"/>
    </clipPath>
  </defs>
  <g id="Group_15" data-name="Group 15" clip-path="url(#clip-path)">
    <path id="Path_7" data-name="Path 7" d="M23.184,32.444H1.465C.053,32.443,0,32.393,0,31.025Q0,16.2,0,1.378C0,.081.078,0,1.34,0Q23.183,0,45.026,0c1.263,0,1.341.082,1.341,1.376q0,14.823,0,29.647c0,1.368-.053,1.419-1.464,1.419H23.184m.006-4.225c5.97,0,11.94-.015,17.91.017.827,0,1.087-.221,1.083-1.065-.031-6.6-.016-13.206-.022-19.808,0-.264.133-.628-.116-.77-.269-.153-.479.18-.69.335q-8.657,6.335-17.3,12.69a1.262,1.262,0,0,1-1.753-.007Q13.7,13.264,5.068,6.97c-.231-.169-.452-.538-.756-.37-.236.13-.106.509-.106.775Q4.2,17.238,4.2,27.1c0,1.116,0,1.117,1.16,1.117H23.19M37.835,4.278H8.616c.186.177.271.276.374.352q6.813,5,13.62,10.014a.87.87,0,0,0,1.224-.063Q29.108,10.686,34.4,6.819c1.1-.8,2.184-1.616,3.432-2.541" transform="translate(0 0)" fill="#1e6091"/>
  </g>
</svg>
